<svg width="57" height="30" viewBox="0 0 57 30" fill="none" xmlns="http://www.w3.org/2000/svg">
<path d="M18.75 22.5L11.25 15L18.75 7.5" stroke="white" stroke-width="2" stroke-linecap="round" stroke-linejoin="round"/>
<path d="M30.8672 19V10.4688H33.791C34.7559 10.4688 35.4902 10.6621 35.9941 11.0488C36.498 11.4355 36.75 12.0117 36.75 12.7773C36.75 13.168 36.6445 13.5195 36.4336 13.832C36.2227 14.1445 35.9141 14.3867 35.5078 14.5586C35.9688 14.6836 36.3242 14.9199 36.5742 15.2676C36.8281 15.6113 36.9551 16.0254 36.9551 16.5098C36.9551 17.3105 36.6973 17.9258 36.1816 18.3555C35.6699 18.7852 34.9355 19 33.9785 19H30.8672ZM32.3496 15.1504V17.8164H33.9961C34.4609 17.8164 34.8242 17.7012 35.0859 17.4707C35.3477 17.2402 35.4785 16.9199 35.4785 16.5098C35.4785 15.623 35.0254 15.1699 34.1191 15.1504H32.3496ZM32.3496 14.0605H33.8027C34.2637 14.0605 34.623 13.957 34.8809 13.75C35.1426 13.5391 35.2734 13.2422 35.2734 12.8594C35.2734 12.4375 35.1523 12.1328 34.9102 11.9453C34.6719 11.7578 34.2988 11.6641 33.791 11.6641H32.3496V14.0605ZM42.0879 19C42.0254 18.8789 41.9707 18.6816 41.9238 18.4082C41.4707 18.8809 40.916 19.1172 40.2598 19.1172C39.623 19.1172 39.1035 18.9355 38.7012 18.5723C38.2988 18.209 38.0977 17.7598 38.0977 17.2246C38.0977 16.5488 38.3477 16.0312 38.8477 15.6719C39.3516 15.3086 40.0703 15.127 41.0039 15.127H41.877V14.7109C41.877 14.3828 41.7852 14.1211 41.6016 13.9258C41.418 13.7266 41.1387 13.627 40.7637 13.627C40.4395 13.627 40.1738 13.709 39.9668 13.873C39.7598 14.0332 39.6562 14.2383 39.6562 14.4883H38.2324C38.2324 14.1406 38.3477 13.8164 38.5781 13.5156C38.8086 13.2109 39.1211 12.9727 39.5156 12.8008C39.9141 12.6289 40.3574 12.543 40.8457 12.543C41.5879 12.543 42.1797 12.7305 42.6211 13.1055C43.0625 13.4766 43.2891 14 43.3008 14.6758V17.5352C43.3008 18.1055 43.3809 18.5605 43.541 18.9004V19H42.0879ZM40.5234 17.9746C40.8047 17.9746 41.0684 17.9062 41.3145 17.7695C41.5645 17.6328 41.752 17.4492 41.877 17.2188V16.0234H41.1094C40.582 16.0234 40.1855 16.1152 39.9199 16.2988C39.6543 16.4824 39.5215 16.7422 39.5215 17.0781C39.5215 17.3516 39.6113 17.5703 39.791 17.7344C39.9746 17.8945 40.2188 17.9746 40.5234 17.9746ZM47.3965 17.9805C47.752 17.9805 48.0469 17.877 48.2812 17.6699C48.5156 17.4629 48.6406 17.207 48.6562 16.9023H49.998C49.9824 17.2969 49.8594 17.666 49.6289 18.0098C49.3984 18.3496 49.0859 18.6191 48.6914 18.8184C48.2969 19.0176 47.8711 19.1172 47.4141 19.1172C46.5273 19.1172 45.8242 18.8301 45.3047 18.2559C44.7852 17.6816 44.5254 16.8887 44.5254 15.877V15.7305C44.5254 14.7656 44.7832 13.9941 45.2988 13.416C45.8145 12.834 46.5176 12.543 47.4082 12.543C48.1621 12.543 48.7754 12.7637 49.248 13.2051C49.7246 13.6426 49.9746 14.2188 49.998 14.9336H48.6562C48.6406 14.5703 48.5156 14.2715 48.2812 14.0371C48.0508 13.8027 47.7559 13.6855 47.3965 13.6855C46.9355 13.6855 46.5801 13.8535 46.3301 14.1895C46.0801 14.5215 45.9531 15.0273 45.9492 15.707V15.9355C45.9492 16.623 46.0723 17.1367 46.3184 17.4766C46.5684 17.8125 46.9277 17.9805 47.3965 17.9805ZM53.1328 16.2812L52.5 16.9316V19H51.0762V10H52.5V15.1914L52.9453 14.6348L54.6973 12.6602H56.4082L54.0527 15.3027L56.6602 19H55.0137L53.1328 16.2812Z" fill="white"/>
</svg>
