<svg width="199" height="199" viewBox="0 0 199 199" fill="none" xmlns="http://www.w3.org/2000/svg">
<rect x="35" y="99.3467" width="91" height="91" rx="20" transform="rotate(-45 35 99.3467)" fill="black"/>
<g filter="url(#filter0_d)">
<rect x="50.3467" y="99.3467" width="69.2964" height="69.2964" rx="10" transform="rotate(-45 50.3467 99.3467)" fill="#FFEC42"/>
</g>
<path d="M92.5593 108.22C91.026 108.22 89.9193 107.747 89.2393 106.8C88.5726 105.84 88.2393 104.46 88.2393 102.66V97.2201C88.2393 95.3667 88.586 93.9734 89.2793 93.0401C89.9726 92.0934 91.166 91.6201 92.8593 91.6201C94.4593 91.6201 95.606 92.0201 96.2993 92.8201C96.9926 93.6067 97.3393 94.7801 97.3393 96.3401V97.1801H94.5193V96.2601C94.5193 95.6734 94.4793 95.2067 94.3993 94.8601C94.3326 94.5134 94.1793 94.2467 93.9393 94.0601C93.7126 93.8734 93.366 93.7801 92.8993 93.7801C92.406 93.7801 92.0393 93.9001 91.7993 94.1401C91.5593 94.3801 91.3993 94.6867 91.3193 95.0601C91.2526 95.4334 91.2193 95.9201 91.2193 96.5201V103.3C91.2193 104.22 91.3393 104.907 91.5793 105.36C91.8326 105.813 92.2993 106.04 92.9793 106.04C93.646 106.04 94.106 105.8 94.3593 105.32C94.626 104.84 94.7593 104.12 94.7593 103.16V101.64H93.0193V99.7801H97.4193V108H95.4993L95.2993 106.42C94.7926 107.62 93.8793 108.22 92.5593 108.22ZM104.091 108.22C102.411 108.22 101.211 107.773 100.491 106.88C99.7712 105.973 99.4112 104.653 99.4112 102.92V96.8401C99.4112 95.1201 99.7712 93.8201 100.491 92.9401C101.211 92.0601 102.411 91.6201 104.091 91.6201C105.758 91.6201 106.951 92.0601 107.671 92.9401C108.391 93.8201 108.751 95.1201 108.751 96.8401V102.92C108.751 104.64 108.385 105.953 107.651 106.86C106.931 107.767 105.745 108.22 104.091 108.22ZM104.091 106.04C104.745 106.04 105.185 105.833 105.411 105.42C105.638 105.007 105.751 104.407 105.751 103.62V96.1601C105.751 95.3734 105.638 94.7801 105.411 94.3801C105.198 93.9801 104.758 93.7801 104.091 93.7801C103.425 93.7801 102.978 93.9867 102.751 94.4001C102.525 94.8001 102.411 95.3867 102.411 96.1601V103.62C102.411 104.407 102.525 105.007 102.751 105.42C102.978 105.833 103.425 106.04 104.091 106.04Z" fill="black"/>
<defs>
<filter id="filter0_d" x="0.34668" y="0.346802" width="198" height="198" filterUnits="userSpaceOnUse" color-interpolation-filters="sRGB">
<feFlood flood-opacity="0" result="BackgroundImageFix"/>
<feColorMatrix in="SourceAlpha" type="matrix" values="0 0 0 0 0 0 0 0 0 0 0 0 0 0 0 0 0 0 127 0"/>
<feOffset/>
<feGaussianBlur stdDeviation="25"/>
<feColorMatrix type="matrix" values="0 0 0 0 1 0 0 0 0 0.925833 0 0 0 0 0.258333 0 0 0 0.4 0"/>
<feBlend mode="normal" in2="BackgroundImageFix" result="effect1_dropShadow"/>
<feBlend mode="normal" in="SourceGraphic" in2="effect1_dropShadow" result="shape"/>
</filter>
</defs>
</svg>
